<?xml version="1.0" standalone="no"?>
<!DOCTYPE svg PUBLIC "-//W3C//DTD SVG 20010904//EN"
 "http://www.w3.org/TR/2001/REC-SVG-20010904/DTD/svg10.dtd">
<svg version="1.0" xmlns="http://www.w3.org/2000/svg"
 width="318.000000pt" height="318.000000pt" viewBox="0 0 318.000000 318.000000"
 preserveAspectRatio="xMidYMid meet">
<metadata>
Created by potrace 1.14, written by Peter Selinger 2001-2017
</metadata>
<g transform="translate(0.000000,318.000000) scale(0.100000,-0.100000)"
fill="#000000" stroke="none">
<path d="M710 2547 c-90 -144 -164 -269 -166 -277 -4 -19 395 -494 418 -498
15 -3 565 212 580 226 6 7 -35 649 -43 656 -3 2 -535 135 -605 151 -18 4 -43
-32 -184 -258z"/>
<path d="M1530 1963 c-70 -27 -545 -235 -551 -240 -6 -8 46 -604 56 -630 2 -7
21 -16 42 -21 101 -26 586 -133 588 -130 5 6 248 414 286 481 l38 68 -57 67
c-167 197 -358 407 -371 409 -9 1 -23 -1 -31 -4z"/>
<path d="M1866 1197 c-88 -138 -161 -259 -163 -268 -3 -10 61 -96 169 -225 95
-115 189 -228 207 -251 l33 -42 52 20 c28 11 162 66 299 121 l247 101 0 31 c0
17 -9 153 -20 301 -11 149 -20 280 -20 291 0 20 -25 28 -305 98 -168 42 -313
76 -322 76 -13 0 -67 -78 -177 -253z"/>
</g>
</svg>
