<svg xmlns="http://www.w3.org/2000/svg" width="48" height="80.001" viewBox="0 0 48 80.001">
  <g id="Group_32" data-name="Group 32" transform="translate(4733 -2562)">
    <g id="Union_4" data-name="Union 4" transform="translate(3000 2529)" fill="none">
      <path d="M-7732.971,94H-7733V53c0-11.045,10.746-20,24-20s24,8.955,24,20V94h-.03c-.625,10.582-11.116,19-23.969,19S-7732.346,104.581-7732.971,94Z" stroke="none"/>
      <path d="M -7708.99951171875 108.0007858276367 C -7703.923828125 108.0007858276367 -7699.14453125 106.4222030639648 -7695.54248046875 103.5558166503906 C -7692.2001953125 100.896369934082 -7690.23974609375 97.39780426025391 -7690.021484375 93.70457458496094 L -7690.00048828125 93.34690856933594 L -7690.00048828125 52.99932861328125 C -7690.00048828125 49.16764831542969 -7691.85791015625 45.50960540771484 -7695.23046875 42.69902038574219 C -7696.97607421875 41.2442512512207 -7699.02490234375 40.09645080566406 -7701.31982421875 39.28747940063477 C -7703.7431640625 38.43325042724609 -7706.3271484375 38.00012588500977 -7708.99951171875 38.00012588500977 C -7711.671875 38.00012588500977 -7714.255859375 38.43326568603516 -7716.6796875 39.28750991821289 C -7718.97509765625 40.09651184082031 -7721.02392578125 41.24435806274414 -7722.77001953125 42.69917297363281 C -7726.14306640625 45.50980377197266 -7728.00048828125 49.16780471801758 -7728.00048828125 52.99932861328125 L -7728.00048828125 92.99964904785156 L -7728.00048828125 93.35554504394531 L -7727.97998046875 93.704345703125 C -7727.76171875 97.39745330810547 -7725.80078125 100.8960494995117 -7722.4580078125 103.5556182861328 C -7718.85498046875 106.4221267700195 -7714.0751953125 108.0007858276367 -7708.99951171875 108.0007858276367 M -7708.99951171875 113.0007858276367 C -7721.8525390625 113.0007858276367 -7732.34619140625 104.5814514160156 -7732.97119140625 93.99913024902344 L -7733.00048828125 93.99913024902344 L -7733.00048828125 92.99964904785156 L -7733.00048828125 52.99932861328125 C -7733.00048828125 41.95465087890625 -7722.2548828125 33.00012588500977 -7708.99951171875 33.00012588500977 C -7695.74462890625 33.00012588500977 -7685.00048828125 41.95465087890625 -7685.00048828125 52.99932861328125 L -7685.00048828125 93.99913024902344 L -7685.0302734375 93.99913024902344 C -7685.65478515625 104.5814514160156 -7696.146484375 113.0007858276367 -7708.99951171875 113.0007858276367 Z" stroke="none" fill="#fff"/>
    </g>
    <path id="Union_5" class="obj" data-name="Union 5" d="M-7733,43.675h0V36.5a3.279,3.279,0,0,1,3-3.5,3.279,3.279,0,0,1,3,3.5v7.175h0A3.25,3.25,0,0,1-7730,47,3.25,3.25,0,0,1-7733,43.675Z" transform="translate(3021 2545)" fill="#fff"/>
  </g>
  <style>
  @keyframes mymove {
    0% {
	  opacity: 1;
	  
      transform: translate3d(3021px,2545px,0px);
	}
	75%{
		opacity: 1;
		transform: translate3d(3021px,2555px,0px);
	}
    100% {
      opacity: 0;
      transform: translate3d(3021px,2555px,0px);
    }
  }
  .obj{
	/* position: absolute; */
    animation: mymove 1.325s linear infinite forwards;
  }
  svg{
    position: relative;
  }
  </style>
</svg>